<svg xmlns="http://www.w3.org/2000/svg" width="256" height="256" viewBox="0 0 100 100"><rect width="100" height="100" rx="50" fill="#7d6ee7"></rect><path d="M37.58 77.67L37.58 77.67Q35.24 77.67 33.80 76.23Q32.36 74.79 32.36 72.45L32.36 72.45L32.36 22.95Q33.08 22.77 34.30 22.55Q35.51 22.32 36.86 22.32L36.86 22.32Q39.47 22.32 40.77 23.31Q42.08 24.30 42.08 26.82L42.08 26.82L42.08 69.57L66.47 69.57Q66.92 70.20 67.28 71.19Q67.64 72.18 67.64 73.44L67.64 73.44Q67.64 75.52 66.65 76.59Q65.66 77.67 64.04 77.67L64.04 77.67L37.58 77.67Z" fill="#ffffff"></path></svg>